<?xml version="1.0" standalone="no"?>
<!DOCTYPE svg PUBLIC "-//W3C//DTD SVG 20010904//EN"
 "http://www.w3.org/TR/2001/REC-SVG-20010904/DTD/svg10.dtd">
<svg version="1.0" xmlns="http://www.w3.org/2000/svg"
 width="512.000000pt" height="512.000000pt" viewBox="0 0 512.000000 512.000000"
 preserveAspectRatio="xMidYMid meet">
<metadata>
Created by potrace 1.14, written by Peter Selinger 2001-2017
</metadata>
<g transform="translate(0.000000,512.000000) scale(0.100000,-0.100000)"
fill="#000000" stroke="none">
<path d="M383 5106 c-181 -44 -334 -202 -372 -384 -16 -75 -16 -4249 0 -4324
39 -187 200 -348 387 -387 75 -16 4249 -16 4324 0 92 19 177 67 249 138 71 72
119 157 138 249 16 75 16 4249 0 4324 -39 187 -200 348 -387 387 -81 17 -4268
14 -4339 -3z m3799 -2118 l3 -653 328 -3 327 -2 -2 -423 -3 -422 -2269 -3
c-1249 -1 -2273 1 -2277 5 -5 6 405 1733 504 2126 l7 27 1690 0 1690 0 2 -652z"/>
<path d="M719 2562 l-216 -897 185 -3 c102 -1 187 -1 189 2 3 3 404 1655 428
1764 l7 32 -189 0 -188 0 -216 -898z"/>
<path d="M1490 3456 c0 -2 -97 -405 -215 -896 -118 -491 -215 -894 -215 -896
0 -2 85 -4 189 -4 l189 0 16 67 c28 109 416 1724 416 1729 0 2 -85 4 -190 4
-104 0 -190 -2 -190 -4z"/>
<path d="M2036 3393 c-28 -109 -416 -1724 -416 -1729 0 -2 196 -4 435 -4 l435
0 0 900 0 900 -219 0 -219 0 -16 -67z"/>
<path d="M2670 2560 l0 -900 995 0 995 0 0 250 0 250 -695 0 -695 0 0 415 0
415 85 0 85 0 0 -330 0 -330 285 0 285 0 0 565 0 565 -670 0 -670 0 0 -900z"/>
</g>
</svg>
